<svg width="36" height="36" viewBox="0 0 36 36" fill="none" xmlns="http://www.w3.org/2000/svg">
<path d="M33.4037 0H2.59634C1.16235 0 0 1.16235 0 2.59634V33.4037C0 34.8376 1.16235 36 2.59634 36H19.2305V22.0781H14.5547V16.6289H19.2305V12.6186C19.2305 7.96811 22.0696 5.43686 26.218 5.43686C28.2049 5.43686 29.9125 5.5849 30.4102 5.65109V10.5117H27.5496C25.2924 10.5117 24.8555 11.5843 24.8555 13.1583V16.6289H30.252L29.5488 22.0781H24.8555V36H33.4037C34.8376 36 36 34.8376 36 33.4037V2.59634C36 1.16235 34.8376 0 33.4037 0V0Z" fill="#FF8400"/>
</svg>
