<svg width="36" height="36" viewBox="0 0 36 36" fill="none" xmlns="http://www.w3.org/2000/svg">
<path d="M33.4037 0H2.59634C1.16235 0 0 1.16235 0 2.59634V33.4037C0 34.8376 1.16235 36 2.59634 36H33.4037C34.8376 36 36 34.8376 36 33.4037V2.59634C36 1.16235 34.8376 0 33.4037 0V0ZM12.7694 27.2109H8.38559V14.0221H12.7694V27.2109ZM10.5776 12.2212H10.5491C9.078 12.2212 8.12659 11.2085 8.12659 9.9429C8.12659 8.64871 9.10712 7.66406 10.6068 7.66406C12.1064 7.66406 13.0292 8.64871 13.0578 9.9429C13.0578 11.2085 12.1064 12.2212 10.5776 12.2212ZM28.5765 27.2109H24.1933V20.1552C24.1933 18.382 23.5585 17.1727 21.9724 17.1727C20.7614 17.1727 20.0402 17.9885 19.7232 18.7759C19.6073 19.0577 19.579 19.4516 19.579 19.8457V27.2109H15.1955C15.1955 27.2109 15.2529 15.2595 15.1955 14.0221H19.579V15.8895C20.1616 14.9908 21.2039 13.7126 23.5297 13.7126C26.4139 13.7126 28.5765 15.5976 28.5765 19.6485V27.2109Z" fill="#FF8400"/>
</svg>
