<svg width="273" height="35" viewBox="0 0 273 35" fill="none" xmlns="http://www.w3.org/2000/svg">
<path d="M43.4892 4.97656H33.7049C32.8168 4.97656 32.2715 5.5192 32.2715 6.40292V30.1083C32.2715 30.9921 32.8168 31.5347 33.7049 31.5347H43.4892C45.7015 31.5347 47.4621 30.9145 48.7241 29.6897C49.9861 28.4649 50.6249 26.713 50.6249 24.5114V11.9998C50.6249 9.79827 49.9861 8.04633 48.7241 6.82152C47.4621 5.59672 45.7015 4.97656 43.4892 4.97656ZM44.3928 12.2479V24.2789C44.3928 24.9456 44.2682 25.4262 44.0345 25.6587C43.8008 25.8913 43.3178 26.0153 42.6478 26.0153H38.4879V10.5114H42.6478C43.3178 10.5114 43.8008 10.6355 44.0345 10.868C44.2682 11.1006 44.3928 11.5812 44.3928 12.2479Z" fill="white"/>
<path d="M70.8321 4.97656H57.8694C56.9813 4.97656 56.436 5.5192 56.436 6.40292V30.1083C56.436 30.9921 56.9813 31.5347 57.8694 31.5347H70.8321C71.689 31.5347 72.2187 30.9921 72.2187 30.1083V27.4262C72.2187 26.5425 71.689 25.9998 70.8321 25.9998H62.6681V20.837H69.3364C70.2244 20.837 70.7697 20.2944 70.7697 19.4107V16.7285C70.7697 15.8448 70.2244 15.3021 69.3364 15.3021H62.6681V10.4959H70.8321C71.689 10.4959 72.2187 9.95331 72.2187 9.06959V6.40292C72.2343 5.5192 71.689 4.97656 70.8321 4.97656Z" fill="white"/>
<path d="M94.9814 4.97656H91.2578C90.432 4.97656 89.8711 5.45718 89.7309 6.27889L86.0696 23.3487L82.4083 6.29439C82.2525 5.45718 81.6916 4.97656 80.8814 4.97656H77.1578C76.5813 4.97656 76.1606 5.1471 75.9269 5.47269C75.7711 5.68974 75.6153 6.06183 75.7867 6.61997L81.9253 30.2169C82.0811 31.0541 82.6576 31.5347 83.4989 31.5347H88.687C89.4661 31.5347 90.0269 31.0696 90.2139 30.2634L96.368 6.60447C96.4771 6.12385 96.3992 5.73625 96.1655 5.44168C95.9006 5.1316 95.5111 4.97656 94.9814 4.97656Z" fill="white"/>
<path d="M115.033 16.5892C113.241 15.8605 111.169 15.3954 108.863 15.2094C106.152 14.9768 106.152 14.0001 106.152 13.6745V12.9303C106.152 11.5815 106.417 11.1163 106.573 10.9458C106.713 10.7908 107.149 10.5272 108.334 10.5272H109.876C111.044 10.5272 111.496 10.7753 111.652 10.9148C111.808 11.0543 112.057 11.4574 112.057 12.5737V12.8063C112.057 13.69 112.602 14.2326 113.491 14.2326H116.856C117.744 14.2326 118.289 13.69 118.289 12.8063V12.0621C118.289 9.86052 117.635 8.10859 116.373 6.86828C115.095 5.62797 113.319 5.00781 111.076 5.00781H107.118C104.906 5.00781 103.13 5.64347 101.868 6.86828C100.59 8.10859 99.9514 9.86052 99.9514 12.0621V13.4419C99.9514 15.1784 100.294 16.6202 100.964 17.752C101.65 18.8993 102.538 19.69 103.582 20.0931C104.532 20.4497 105.56 20.7598 106.666 20.9923C107.773 21.2249 108.801 21.3799 109.736 21.4574C110.561 21.5194 111.247 21.7365 111.777 22.0931C112.229 22.3877 112.447 22.7908 112.447 23.3489V23.8295C112.447 24.7132 112.291 25.3489 112.01 25.6125C111.808 25.814 111.34 26.0311 110.265 26.0311H108.396C107.227 26.0311 106.775 25.783 106.62 25.6435C106.355 25.3954 106.215 24.8218 106.215 24.0156V23.7055C106.215 22.8218 105.669 22.2791 104.781 22.2791H101.416C100.528 22.2791 99.9826 22.8218 99.9826 23.7055V24.4962C99.9826 26.6977 100.637 28.4497 101.899 29.69C103.176 30.9303 104.937 31.5504 107.149 31.5504H111.465C113.677 31.5504 115.438 30.9148 116.716 29.69C117.993 28.4497 118.632 26.6977 118.632 24.4962V23.1629C118.632 21.4884 118.289 20.0776 117.619 18.9768C116.949 17.814 116.077 17.0388 115.033 16.5892Z" fill="#FF8400"/>
<path d="M141.208 4.97656H137.873C136.985 4.97656 136.44 5.5192 136.44 6.40292V24.2789C136.44 24.9456 136.315 25.4262 136.082 25.6587C135.848 25.8913 135.365 26.0153 134.695 26.0153H131.969C131.33 26.0153 130.862 25.8913 130.629 25.6587C130.395 25.4262 130.27 24.9456 130.27 24.2789V6.40292C130.27 5.5192 129.725 4.97656 128.837 4.97656H125.472C124.584 4.97656 124.038 5.5192 124.038 6.40292V24.5114C124.038 26.744 124.677 28.4959 125.924 29.7052C127.17 30.9145 128.93 31.5347 131.174 31.5347H135.536C137.749 31.5347 139.509 30.9145 140.771 29.6897C142.033 28.4649 142.672 26.713 142.672 24.5114V6.35641C142.672 5.5192 142.111 4.97656 141.208 4.97656Z" fill="#FF8400"/>
<path d="M159.795 4.97656H150.12C149.232 4.97656 148.686 5.5192 148.686 6.40292V30.1083C148.686 30.9921 149.232 31.5347 150.12 31.5347H153.485C154.373 31.5347 154.918 30.9921 154.918 30.1083V22.806H159.795C162.007 22.806 163.768 22.1859 165.014 20.9611C166.261 19.7363 166.899 17.9843 166.899 15.7828V11.9998C166.899 9.79827 166.261 8.06183 165.014 6.82152C163.768 5.61222 162.023 4.97656 159.795 4.97656ZM160.683 12.2479V15.5657C160.683 16.2169 160.558 16.682 160.325 16.9145C160.107 17.1471 159.639 17.2711 158.969 17.2711H154.918V10.5269H158.969C159.639 10.5269 160.107 10.651 160.325 10.8835C160.558 11.0851 160.683 11.5657 160.683 12.2479Z" fill="#FF8400"/>
<path d="M186.374 4.97656H173.412C172.524 4.97656 171.978 5.5192 171.978 6.40292V30.1083C171.978 30.9921 172.524 31.5347 173.412 31.5347H186.374C187.231 31.5347 187.761 30.9921 187.761 30.1083V27.4262C187.761 26.5425 187.231 25.9998 186.374 25.9998H178.21V20.837H184.863C185.751 20.837 186.296 20.2944 186.296 19.4107V16.7285C186.296 15.8448 185.751 15.3021 184.863 15.3021H178.21V10.4959H186.374C187.231 10.4959 187.761 9.95331 187.761 9.06959V6.40292C187.761 5.5192 187.216 4.97656 186.374 4.97656Z" fill="#FF8400"/>
<path d="M207.875 21.3488C210.118 20.217 211.256 18.124 211.256 15.1162V12.0465C211.256 9.8449 210.601 8.09296 209.339 6.85265C208.062 5.61234 206.301 4.99219 204.089 4.99219H194.647C193.759 4.99219 193.214 5.53482 193.214 6.41854V30.124C193.214 31.0077 193.759 31.5503 194.647 31.5503H198.013C198.901 31.5503 199.446 31.0077 199.446 30.124V22.186H201.596L205.382 30.3255C205.569 30.8061 205.849 31.1472 206.192 31.3178C206.488 31.4728 206.909 31.5348 207.485 31.5348H210.695C211.24 31.5348 211.645 31.3643 211.863 31.0387C212.097 30.7131 212.113 30.2945 211.894 29.7364L207.875 21.3488ZM205.039 12.248V15.3178C205.039 15.9224 204.899 16.3565 204.65 16.5891C204.369 16.8371 203.855 16.9767 203.185 16.9767H199.462V10.5116H203.185C203.871 10.5116 204.369 10.6356 204.65 10.8992C204.899 11.1472 205.039 11.5968 205.039 12.248Z" fill="#FF8400"/>
<path d="M222.162 4.97656H218.796C217.908 4.97656 217.363 5.5192 217.363 6.40292V30.1083C217.363 30.9921 217.908 31.5347 218.796 31.5347H222.162C223.05 31.5347 223.595 30.9921 223.595 30.1083V6.40292C223.595 5.5192 223.05 4.97656 222.162 4.97656Z" fill="#FF8400"/>
<path d="M241.201 4.97656H236.76C234.517 4.97656 232.756 5.59672 231.51 6.80602C230.264 8.01532 229.625 9.76726 229.625 11.9998V24.5114C229.625 26.744 230.264 28.4959 231.51 29.7052C232.756 30.9145 234.517 31.5347 236.76 31.5347H241.201C243.444 31.5347 245.205 30.9145 246.451 29.7052C247.698 28.4959 248.336 26.744 248.336 24.5114V11.9998C248.336 9.76726 247.698 8.01532 246.451 6.80602C245.205 5.59672 243.429 4.97656 241.201 4.97656ZM242.104 12.2479V24.2789C242.104 24.9456 241.98 25.4262 241.746 25.6587C241.512 25.8913 241.029 26.0153 240.359 26.0153H237.539C236.87 26.0153 236.402 25.8913 236.184 25.6587C235.95 25.4262 235.841 24.9456 235.841 24.2789V12.2479C235.841 11.5812 235.966 11.1006 236.184 10.868C236.402 10.6355 236.87 10.5114 237.539 10.5114H240.359C241.029 10.5114 241.512 10.6355 241.746 10.868C241.98 11.1006 242.104 11.5812 242.104 12.2479Z" fill="#FF8400"/>
<path d="M272.86 29.7364L268.824 21.3488C271.068 20.217 272.205 18.124 272.205 15.1162V12.0465C272.205 9.8449 271.551 8.09296 270.289 6.85265C269.011 5.61234 267.251 4.99219 265.038 4.99219H255.597C254.709 4.99219 254.163 5.53482 254.163 6.41854V30.124C254.163 31.0077 254.709 31.5503 255.597 31.5503H258.962C259.85 31.5503 260.395 31.0077 260.395 30.124V22.186H262.545L266.331 30.3255C266.518 30.8061 266.799 31.1472 267.142 31.3178C267.438 31.4728 267.858 31.5348 268.435 31.5348H271.644C272.19 31.5348 272.595 31.3643 272.813 31.0387C273.046 30.7131 273.062 30.2945 272.86 29.7364ZM265.973 12.248V15.3178C265.973 15.9224 265.833 16.3565 265.584 16.5891C265.303 16.8371 264.789 16.9767 264.119 16.9767H260.395V10.5116H264.119C264.805 10.5116 265.303 10.6356 265.584 10.8992C265.833 11.1472 265.973 11.5968 265.973 12.248Z" fill="#FF8400"/>
<path d="M24.8883 13.668C24.6882 13.2119 24.2378 12.9122 23.75 12.9122H15.5316L18.2335 1.6142C18.3711 1.02779 18.1084 0.41533 17.5831 0.141676C17.0702 -0.131979 16.4322 -0.00166707 16.057 0.467454L0.295664 19.936C-0.01706 20.3269 -0.092113 20.8612 0.120539 21.3303C0.333192 21.7994 0.771006 22.0861 1.25886 22.0861H9.47725L6.77531 33.3841C6.63771 33.9705 6.9004 34.583 7.42578 34.8567C7.6009 34.9479 7.80104 35 7.98868 35C8.35144 35 8.70169 34.8436 8.93936 34.5439L24.7132 15.0623C25.0134 14.6714 25.0884 14.1371 24.8883 13.668Z" fill="#FF8400"/>
</svg>
